<svg width="29" height="19" viewBox="0 0 29 19" fill="none" xmlns="http://www.w3.org/2000/svg">
<path d="M0.564152 2.2062H17.4887C17.8001 2.2062 18.0529 1.75543 18.0529 1.19777C18.0529 0.640102 17.8001 0.189331 17.4887 0.189331H0.564152C0.25274 0.189331 0 0.640102 0 1.19777C0 1.75543 0.252176 2.2062 0.564152 2.2062Z" fill="#6C7172"/>
<path d="M9.63094 18.3412H27.7644C28.098 18.3412 28.3688 17.8905 28.3688 17.3328C28.3688 16.7751 28.098 16.3243 27.7644 16.3243H9.63094C9.29728 16.3243 9.02649 16.7751 9.02649 17.3328C9.02649 17.8905 9.29668 18.3412 9.63094 18.3412Z" fill="#6C7172"/>
<path d="M0.886524 10.2737H27.4823C27.9716 10.2737 28.3688 9.82294 28.3688 9.26527C28.3688 8.70761 27.9716 8.25684 27.4823 8.25684H0.886524C0.397163 8.25684 0 8.70761 0 9.26527C0 9.82294 0.396276 10.2737 0.886524 10.2737Z" fill="#6C7172"/>
</svg>
