<svg width="29" height="20" viewBox="0 0 29 20" fill="none" xmlns="http://www.w3.org/2000/svg">
<path d="M0.564176 2.15778H17.4895C17.8009 2.15778 18.0536 1.67551 18.0536 1.07889C18.0536 0.482263 17.8009 0 17.4895 0H0.564176C0.252751 0 0 0.482263 0 1.07889C0 1.67551 0.252187 2.15778 0.564176 2.15778Z" fill="white"/>
<path d="M9.63133 19.42H27.7656C28.0992 19.42 28.37 18.9377 28.37 18.3411C28.37 17.7445 28.0992 17.2622 27.7656 17.2622H9.63133C9.29766 17.2622 9.02686 17.7445 9.02686 18.3411C9.02686 18.9377 9.29706 19.42 9.63133 19.42Z" fill="white"/>
<path d="M0.886563 10.7889H27.4834C27.9728 10.7889 28.37 10.3066 28.37 9.70999C28.37 9.11337 27.9728 8.6311 27.4834 8.6311H0.886563C0.39718 8.6311 0 9.11337 0 9.70999C0 10.3066 0.396293 10.7889 0.886563 10.7889Z" fill="white"/>
</svg>
